<?xml version="1.0" encoding="utf-8"?>
<!-- Generator: Adobe Illustrator 13.0.0, SVG Export Plug-In . SVG Version: 6.00 Build 14948)  -->
<!DOCTYPE svg PUBLIC "-//W3C//DTD SVG 1.1//EN" "http://www.w3.org/Graphics/SVG/1.1/DTD/svg11.dtd">
<svg version="1.1" id="Layer_1" xmlns="http://www.w3.org/2000/svg" xmlns:xlink="http://www.w3.org/1999/xlink" x="0px" y="0px"
	 width="256px" height="248px" viewBox="0 0 256 248" enable-background="new 0 0 256 248" xml:space="preserve">
<g id="Layer_57">
	<g>
		<g>
			<g>
				<rect x="4" y="44" fill="#FFFFFF" width="248" height="176"/>
				<rect x="4" y="4" fill="#FFFFFF" width="248" height="40"/>
				<polyline fill="none" stroke="#657889" stroke-width="8" stroke-linejoin="round" stroke-miterlimit="10" points="128,220 
					4,220 4,44 252,44 252,136 				"/>
				<rect x="84" y="72" fill="#67DDE0" width="24" height="24"/>
				<rect x="116" y="72" fill="#67DDE0" width="24" height="24"/>
				<rect x="148" y="72" fill="#67DDE0" width="24" height="24"/>
				<rect x="180" y="72" fill="#67DDE0" width="24" height="24"/>
				<rect x="212" y="72" fill="#67DDE0" width="24" height="24"/>
				<rect x="20" y="104" fill="#67DDE0" width="24" height="24"/>
				<rect x="52" y="104" fill="#67DDE0" width="24" height="24"/>
				<rect x="84" y="104" fill="#67DDE0" width="24" height="24"/>
				<rect x="116" y="104" fill="#67DDE0" width="24" height="24"/>
				<rect x="148" y="104" fill="#67DDE0" width="24" height="24"/>
				<rect x="180" y="104" fill="#67DDE0" width="24" height="24"/>
				<rect x="212" y="104" fill="#67DDE0" width="24" height="24"/>
				<rect x="20" y="136" fill="#67DDE0" width="24" height="24"/>
				<rect x="52" y="136" fill="#67DDE0" width="24" height="24"/>
				<rect x="84" y="136" fill="#67DDE0" width="24" height="24"/>
				<rect x="116" y="136" fill="#67DDE0" width="24" height="24"/>
				<rect x="148" y="136" fill="#67DDE0" width="24" height="24"/>
				<rect x="180" y="136" fill="#67DDE0" width="24" height="24"/>
				<rect x="212" y="136" fill="#67DDE0" width="24" height="24"/>
				<rect x="20" y="168" fill="#67DDE0" width="24" height="24"/>
				<rect x="52" y="168" fill="#67DDE0" width="24" height="24"/>
				<rect x="84" y="168" fill="#67DDE0" width="24" height="24"/>
				<rect x="116" y="168" fill="#67DDE0" width="24" height="24"/>
				<rect x="148" y="168" fill="#67DDE0" width="24" height="24"/>
				<polyline fill="none" stroke="#657889" stroke-width="8" stroke-linejoin="round" stroke-miterlimit="10" points="4,32 4,4 
					252,4 252,32 				"/>
				
					<line fill="none" stroke="#657889" stroke-width="8" stroke-linejoin="round" stroke-miterlimit="10" x1="28" y1="20" x2="228" y2="20"/>
				
					<line fill="none" stroke="#657889" stroke-width="8" stroke-linejoin="round" stroke-miterlimit="10" x1="68" y1="84" x2="60" y2="84"/>
				
					<line fill="none" stroke="#657889" stroke-width="8" stroke-linejoin="round" stroke-miterlimit="10" x1="36" y1="84" x2="28" y2="84"/>
			</g>
			<circle fill="#F28C13" cx="196" cy="188" r="56"/>
			
				<circle fill="none" stroke="#657889" stroke-width="8" stroke-linejoin="round" stroke-miterlimit="10" cx="196" cy="188" r="56"/>
			<polyline fill="none" stroke="#657889" stroke-width="8" stroke-linejoin="round" stroke-miterlimit="10" points="220,172 
				188,204 172,188 			"/>
		</g>
	</g>
</g>
<g id="Layer_1_1_">
</g>
</svg>
